<?xml version="1.0" encoding="UTF-8"?>
<svg version="1.1" xmlns="http://www.w3.org/2000/svg" width="1080" height="1080">
<path d="M0 0 C2.35512984 11.22078643 4.70271144 22.44312306 7.04072571 33.66748905 C8.12664717 38.87961208 9.21514062 44.09116996 10.30957031 49.30151367 C11.36607001 54.33175543 12.41573704 59.36337913 13.46072388 64.3960247 C13.86017912 66.31381221 14.2620749 68.23109309 14.66647339 70.14784431 C15.23337825 72.83691845 15.79150237 75.52767897 16.34765625 78.21899414 C16.51596954 79.00734146 16.68428284 79.79568878 16.85769653 80.60792542 C17.7892332 85.16953762 18.1629376 89.34373538 18 94 C15.44696285 95.5390224 12.88460065 97.05595193 10.3125 98.5625 C9.59126953 99.00013672 8.87003906 99.43777344 8.12695312 99.88867188 C2.80878399 102.97272429 2.80878399 102.97272429 -0.6640625 103.08984375 C-3.86418068 101.59681202 -6.19427411 99.4409433 -8.6875 97 C-9.75345774 95.98911018 -10.81987035 94.97869982 -11.88671875 93.96875 C-12.6763501 93.21271484 -12.6763501 93.21271484 -13.48193359 92.44140625 C-15.61498143 90.41607424 -17.80481208 88.45758276 -20 86.5 C-23.71069743 83.17049781 -27.39200165 79.81109427 -31.0625 76.4375 C-33.04088201 74.62414153 -35.0204838 72.81212087 -37 71 C-37.88816406 70.18273437 -38.77632813 69.36546875 -39.69140625 68.5234375 C-40.49449219 67.79382813 -41.29757812 67.06421875 -42.125 66.3125 C-42.82882812 65.66925781 -43.53265625 65.02601563 -44.2578125 64.36328125 C-45.89381694 62.79457978 -45.89381694 62.79457978 -48 63 C-45.85965626 74.78194587 -43.71668859 86.56165984 -41.33203125 98.296875 C-41.19458496 98.9746701 -41.05713867 99.65246521 -40.91552734 100.35079956 C-40.24420538 103.65548312 -39.56627264 106.95854876 -38.88037109 110.26025391 C-38.51226318 112.06115479 -38.51226318 112.06115479 -38.13671875 113.8984375 C-37.91717529 114.95724121 -37.69763184 116.01604492 -37.47143555 117.10693359 C-37.01995538 119.8775395 -36.64099902 122.212463 -37 125 C-38.49707031 126.50146484 -38.49707031 126.50146484 -40.578125 127.7109375 C-41.70154297 128.37029297 -41.70154297 128.37029297 -42.84765625 129.04296875 C-44.03681641 129.70232422 -44.03681641 129.70232422 -45.25 130.375 C-46.41595703 131.06916016 -46.41595703 131.06916016 -47.60546875 131.77734375 C-53.34412517 135.0635829 -53.34412517 135.0635829 -56.04492188 134.80175781 C-58.30994736 133.87289371 -59.63013544 132.78373447 -61.390625 131.0859375 C-62.32491333 130.19708862 -62.32491333 130.19708862 -63.27807617 129.2902832 C-63.92881104 128.65823975 -64.5795459 128.02619629 -65.25 127.375 C-66.60464748 126.08377326 -67.96010685 124.79339771 -69.31640625 123.50390625 C-69.95980957 122.88918457 -70.60321289 122.27446289 -71.26611328 121.64111328 C-73.19740727 119.81315521 -75.17185583 118.0468915 -77.1875 116.3125 C-80.47604802 113.48049661 -83.68126606 110.56295547 -86.875 107.625 C-92.2163038 102.71200435 -97.59795513 97.84620746 -103 93 C-105.49146851 90.75845937 -107.98216307 88.51606169 -110.47265625 86.2734375 C-112.22893261 84.69360312 -113.98686657 83.11561032 -115.74609375 81.5390625 C-116.63425781 80.74242187 -117.52242188 79.94578125 -118.4375 79.125 C-119.24058594 78.40570313 -120.04367187 77.68640625 -120.87109375 76.9453125 C-124.77757025 73.3757248 -124.77757025 73.3757248 -126 72 C-126 71.34 -126 70.68 -126 70 C-123.42474285 68.46382917 -120.841326 66.94611799 -118.25 65.4375 C-117.52039063 64.99986328 -116.79078125 64.56222656 -116.0390625 64.11132812 C-114.97558594 63.49741211 -114.97558594 63.49741211 -113.890625 62.87109375 C-112.91657715 62.29766235 -112.91657715 62.29766235 -111.92285156 61.71264648 C-109.52318307 60.8232823 -108.36534229 61.10523226 -106 62 C-104.359375 63.3828125 -104.359375 63.3828125 -102.75 65.125 C-100.41522281 67.56278206 -98.06640197 69.86990006 -95.5 72.0625 C-91.44063156 75.56113856 -87.53382738 79.21047433 -83.625 82.875 C-77.08757571 88.99583435 -77.08757571 88.99583435 -70.5 95.0625 C-69.7884375 95.71347656 -69.076875 96.36445313 -68.34375 97.03515625 C-66.39168394 98.6716383 -64.42871798 100.15175983 -62.35351562 101.62280273 C-61.4107074 102.29230202 -61.4107074 102.29230202 -60.44885254 102.97532654 C-59.73167053 103.4825399 -59.73167053 103.4825399 -59 104 C-59.22883629 102.87033562 -59.22883629 102.87033562 -59.46229553 101.71784973 C-60.89966911 94.61340445 -62.32779772 87.50719257 -63.74562931 80.39882374 C-64.47484114 76.74457414 -65.20758214 73.09110744 -65.94848633 69.43920898 C-66.66362928 65.91361393 -67.36937319 62.38625505 -68.06869316 58.85748863 C-68.33687235 57.51284719 -68.60840743 56.16887048 -68.88337898 54.82560158 C-69.26850349 52.94128293 -69.64050628 51.05429691 -70.01196289 49.16723633 C-70.22736221 48.09468094 -70.44276154 47.02212555 -70.66468811 45.91706848 C-71.00997957 42.91318202 -70.95195677 40.86527703 -70 38 C-67.71214924 36.25081526 -65.68559843 34.92076256 -63.1875 33.5625 C-62.24293945 32.99885742 -62.24293945 32.99885742 -61.27929688 32.42382812 C-56.69117094 29.84812259 -56.69117094 29.84812259 -53.90234375 30.4609375 C-51.29825171 32.56773887 -48.8071216 34.76199265 -46.375 37.0625 C-45.29856622 38.06552195 -44.22173793 39.06812066 -43.14453125 40.0703125 C-42.61166504 40.56821289 -42.07879883 41.06611328 -41.52978516 41.57910156 C-39.39812047 43.55903907 -37.2318124 45.49896552 -35.0625 47.4375 C-31.1762889 50.92448556 -27.33178117 54.45354052 -23.5 58 C-19.4508978 61.74404918 -15.39608205 65.4810453 -11.3125 69.1875 C-10.52488281 69.90292969 -9.73726563 70.61835938 -8.92578125 71.35546875 C-7.09410576 73.05325953 -7.09410576 73.05325953 -5 74 C-5.15033691 73.2616391 -5.30067383 72.5232782 -5.45556641 71.76254272 C-6.87413482 64.79012618 -8.28709033 57.81660099 -9.69381714 50.84178734 C-10.41715396 47.25636032 -11.14262239 43.67139276 -11.87304688 40.08740234 C-12.57840206 36.62601266 -13.27804711 33.16351275 -13.97381592 29.70018387 C-14.36875502 27.74190286 -14.76953628 25.78480301 -15.17041016 23.82772827 C-15.41065918 22.62693634 -15.6509082 21.42614441 -15.8984375 20.18896484 C-16.21820557 18.61011002 -16.21820557 18.61011002 -16.54443359 16.99935913 C-17.01495419 13.90154458 -17.26933416 11.12516806 -17 8 C-14.86804252 6.15764368 -13.16729994 4.9552914 -10.75 3.625 C-10.16347656 3.27050781 -9.57695312 2.91601562 -8.97265625 2.55078125 C-5.64000321 0.61110229 -3.94613469 0 0 0 Z " fill="#000000" transform="translate(432,202)"/>
<path d="M0 0 C3.81949786 0.55653028 6.2421815 1.56717763 9.37109375 3.80859375 C10.5936084 4.6747229 10.5936084 4.6747229 11.84082031 5.55834961 C13.12617676 6.48852905 13.12617676 6.48852905 14.4375 7.4375 C15.32405273 8.06986572 16.21060547 8.70223145 17.12402344 9.35375977 C18.91500076 10.63221962 20.70360606 11.91400936 22.48974609 13.19921875 C24.69795795 14.78332405 26.91660694 16.35006443 29.14453125 17.90625 C42.94250512 27.5622873 54.46028707 37.29474965 58.58203125 54.41796875 C60.53239541 66.46648003 58.56889648 78.1075611 51.75 88.3125 C44.91885798 97.26565635 36.93673335 105.36732896 25.47265625 107.71484375 C0.90909775 110.547608 -15.53742202 99.74456378 -34.42578125 85.62890625 C-39.47638543 81.87502301 -44.72474463 78.42842481 -50 75 C-49.09802079 70.6601444 -46.83850024 67.56526388 -44.3125 64 C-43.82483154 63.30140869 -43.33716309 62.60281738 -42.8347168 61.88305664 C-41.22860639 59.58482699 -39.61430249 57.29248087 -38 55 C-36.90561624 53.43664137 -35.81187279 51.87283433 -34.71875 50.30859375 C-32.40193731 46.99454866 -30.08271535 43.68220991 -27.76171875 40.37109375 C-13.66404261 20.33350447 -13.66404261 20.33350447 0 0 Z M8 26 C6.22916136 28.06392169 4.67882076 30.09191947 3.125 32.3125 C2.4129541 33.30672974 2.4129541 33.30672974 1.68652344 34.32104492 C-3.32205036 41.35593252 -8.18211369 48.49658855 -13.02734375 55.64453125 C-15.90901315 59.88904145 -18.88061164 64.05845647 -21.92578125 68.1875 C-23.25492661 70.07897776 -23.25492661 70.07897776 -23 73 C-21.44592388 74.47546809 -21.44592388 74.47546809 -19.34375 75.77734375 C-18.56773437 76.29103516 -17.79171875 76.80472656 -16.9921875 77.33398438 C-15.75855469 78.12772461 -15.75855469 78.12772461 -14.5 78.9375 C-13.31277344 79.72543945 -13.31277344 79.72543945 -12.1015625 80.52929688 C-3.7764647 85.98155355 3.73960502 90.81431706 14 90 C24.44229524 87.20729313 30.27894693 82.83191927 35.703125 73.5 C39.12805376 66.8977277 39.88699321 61.41008912 39 54 C35.5564566 43.1466891 27.70788001 37.32533583 18.75 31.0625 C18.03996826 30.56500244 17.32993652 30.06750488 16.59838867 29.55493164 C15.92138916 29.09465576 15.24438965 28.63437988 14.546875 28.16015625 C13.93682617 27.74386963 13.32677734 27.32758301 12.69824219 26.89868164 C10.87829233 25.76613496 10.87829233 25.76613496 8 26 Z " fill="#010101" transform="translate(701,230)"/>
<path d="M0 0 C3.59500345 0.55400302 6.04093082 1.40940258 9.03881836 3.45825195 C9.8034993 3.97490417 10.56818024 4.4915564 11.35603333 5.02386475 C12.17569077 5.58962219 12.99534821 6.15537964 13.83984375 6.73828125 C14.70707565 7.32700012 15.57430756 7.91571899 16.46781921 8.52227783 C19.29635519 10.44468494 22.11703649 12.37827308 24.9375 14.3125 C27.85204583 16.30066005 30.76819345 18.28645203 33.68463135 20.27183533 C35.63948069 21.60267328 37.59370321 22.93443243 39.54730225 24.2671051 C45.48818948 28.31404269 51.4617374 32.30424451 57.48046875 36.234375 C58.18813889 36.69809006 58.89580902 37.16180511 59.62492371 37.63957214 C63.58358754 40.23344001 63.58358754 40.23344001 67.55685425 42.80484009 C69.32845223 43.94461933 71.09065274 45.09771007 72.8515625 46.25390625 C73.82947754 46.88627197 74.80739258 47.5186377 75.81494141 48.17016602 C78 50 78 50 78.91845703 52.04785156 C79.05856621 55.40208216 77.10079547 57.4933456 75.25 60.1875 C74.53328125 61.25355469 73.8165625 62.31960938 73.078125 63.41796875 C71 66 71 66 68 67 C65.3125 65.5625 65.3125 65.5625 63 64 C63.04640625 64.83402344 63.0928125 65.66804687 63.140625 66.52734375 C63.48230405 77.18040831 61.6620739 83.11912469 54.8125 91.25 C48.86008891 97.56584213 42.4417924 101.60529211 33.71484375 102.23828125 C20.18097632 102.50420005 10.92181199 99.50405149 1 90 C-5.41474296 83.26045993 -8.06181115 75.75212049 -8.375 66.5 C-8.0585122 57.13723578 -5.09918642 49.15218497 1 42 C4.8892796 38.43864005 8.92150333 35.58703021 14 34 C14 33.34 14 32.68 14 32 C11.70294949 30.18794251 11.70294949 30.18794251 8.75 28.3046875 C7.6671875 27.58925781 6.584375 26.87382813 5.46875 26.13671875 C4.31259726 25.38266335 3.15634595 24.62875907 2 23.875 C0.8433325 23.11391537 -0.31292323 22.35220455 -1.46875 21.58984375 C-4.30849654 19.72034394 -7.15234084 17.85741598 -10 16 C-8.43970755 11.8807065 -6.51846543 8.72633275 -3.875 5.1875 C-3.15054688 4.21167969 -2.42609375 3.23585938 -1.6796875 2.23046875 C-0.84824219 1.12638672 -0.84824219 1.12638672 0 0 Z M17 48 C12.62215514 52.44874113 10.0574623 57.53429383 9.7734375 63.8046875 C10.35818734 69.47071181 13.18902858 73.53342687 17.3125 77.3125 C21.6815715 80.73136831 25.89074846 82.7315498 31.4375 83.4375 C37.09117322 82.74318925 41.28195455 80.71804545 45.3125 76.6875 C48.56465048 71.50814923 50.78234751 67.31188228 49.62890625 61.046875 C47.6543665 54.62042265 44.04115464 50.20516537 38.1640625 46.98046875 C30.41682411 43.47043836 24.3373673 43.14987585 17 48 Z " fill="#010101" transform="translate(750,637)"/>
<path d="M0 0 C9.405 1.485 9.405 1.485 19 3 C18.29142197 13.77038605 16.68051852 24.34459566 15 35 C16.14597656 34.51273438 17.29195312 34.02546875 18.47265625 33.5234375 C22.88147428 31.87631473 26.76323173 31.53090862 31.4375 31.625 C32.18394775 31.63732666 32.93039551 31.64965332 33.69946289 31.66235352 C43.76659488 31.96874926 49.41311161 34.53837901 56.765625 41.60546875 C64.05758563 49.42010488 66.50185353 57.70816899 66.25390625 68.3203125 C65.07398101 80.77306192 60.62050696 89.9683608 51 98 C42.27043646 103.59463741 32.32323138 104.21028194 22.2109375 102.5390625 C16.33815896 100.99359446 11.31878619 98.33084984 7 94 C7 93.34 7 92.68 7 92 C6.01 92.495 6.01 92.495 5 93 C4.34444881 95.52733235 4.34444881 95.52733235 4 98 C1.20775806 97.6920761 -1.58371427 97.37887563 -4.375 97.0625 C-5.1690625 96.97548828 -5.963125 96.88847656 -6.78125 96.79882812 C-12.7734375 96.11328125 -12.7734375 96.11328125 -15 95 C-12.61992882 76.51959639 -9.70320943 58.1325748 -6.75311279 39.73675537 C-6.24305958 36.55087818 -5.73621486 33.36449374 -5.22936058 30.17810631 C-4.7382761 27.09299499 -4.24545044 24.00816385 -3.75206375 20.92341995 C-3.51795285 19.45869197 -3.28432119 17.99388729 -3.05118942 16.52900314 C-2.72775688 14.49870778 -2.40203882 12.46879217 -2.07568359 10.43896484 C-1.891539 9.28842621 -1.70739441 8.13788757 -1.51766968 6.95248413 C-1.10801556 4.61605741 -0.57531098 2.30124392 0 0 Z M13.42578125 53.97265625 C9.68513533 59.70688424 8.09655486 65.07358726 9 72 C11.0256115 78.07683451 14.06616607 82.00818535 19.8515625 84.9375 C24.55927796 86.97326885 27.94523368 87.44421895 33 86 C39.22419405 83.43639517 42.46226745 79.82061527 45.15234375 73.68359375 C47.04276937 67.6986979 46.90413526 62.36058624 44.3125 56.625 C41.46588395 51.6534452 37.54524339 48.51233911 32 47 C24.29262531 45.89049309 18.36637164 47.78159385 13.42578125 53.97265625 Z " fill="#000000" transform="translate(560,185)"/>
<path d="M0 0 C13.88607186 8.14558791 20.27842509 22.8807357 24.69140625 37.73828125 C25.79844514 42.3158296 25.78671939 46.75129183 25.6875 51.4375 C25.67847656 52.25992188 25.66945313 53.08234375 25.66015625 53.9296875 C25.63686865 55.93242083 25.60100959 57.93500154 25.5625 59.9375 C20.2825 59.9375 15.0025 59.9375 9.5625 59.9375 C9.46453125 58.76574219 9.3665625 57.59398437 9.265625 56.38671875 C8.44136554 47.40219489 7.44958907 39.19588301 3.5625 30.9375 C3.17964844 30.10476563 2.79679687 29.27203125 2.40234375 28.4140625 C-0.04431559 23.55221211 -2.27923598 20.20713617 -7.4375 17.9375 C-11.15057604 17.83614511 -11.15057604 17.83614511 -14.4375 18.9375 C-17.77028803 23.93668205 -17.09004331 29.33977948 -16.03613281 35.15039062 C-15.51861135 37.64547447 -14.98165961 40.13559361 -14.4375 42.625 C-12.0297512 53.7955301 -9.93395645 65.38172855 -15.4375 75.9375 C-17.3046875 78.08203125 -17.3046875 78.08203125 -19.3125 79.75 C-20.29863281 80.59498047 -20.29863281 80.59498047 -21.3046875 81.45703125 C-28.26508068 86.28851296 -36.33935804 85.56482086 -44.4375 84.9375 C-53.23144147 82.89653851 -60.0500776 74.48846757 -64.6875 67.1875 C-70.96088986 55.91282434 -74.69994245 43.91647203 -74.4375 30.9375 C-70.84287669 28.67751405 -67.87154325 28.72881913 -63.6875 28.8125 C-61.93179688 28.83957031 -61.93179688 28.83957031 -60.140625 28.8671875 C-59.24859375 28.89039063 -58.3565625 28.91359375 -57.4375 28.9375 C-57.29054687 30.37029297 -57.29054687 30.37029297 -57.140625 31.83203125 C-55.8203197 43.2481193 -53.94148498 54.45477498 -45.4375 62.9375 C-42.33076171 64.9722852 -40.32351309 65.09720781 -36.6875 64.5625 C-35.88828125 64.45164062 -35.0890625 64.34078125 -34.265625 64.2265625 C-33.66234375 64.13117188 -33.0590625 64.03578125 -32.4375 63.9375 C-29.58186333 55.01363541 -32.77673731 45.62112428 -34.66015625 36.8046875 C-36.9948451 25.35804161 -38.15611024 15.35245894 -31.6875 5.1875 C-23.46455917 -3.03544083 -10.52097142 -4.93676351 0 0 Z " fill="#000000" transform="translate(294.4375,629.0625)"/>
<path d="M0 0 C0.66 0 1.32 0 2 0 C5.70124248 12.59275434 9.14528697 25.18737623 12 38 C28.71528847 36.38170456 45.35278537 34.19492111 62 32 C60.45037113 40.15668288 58.14979906 48.11747983 51 53 C40.44081467 56.49284613 29.04011526 57.2112862 18 58 C17.07521283 61.34073833 17.01942377 63.68655867 17.625 67.125 C17.82996094 68.42824219 17.82996094 68.42824219 18.0390625 69.7578125 C18.80015034 72.20529088 18.80015034 72.20529088 21.25390625 73.109375 C22.16011719 73.40328125 23.06632812 73.6971875 24 74 C25.78987319 75.00860007 27.56117681 76.05085511 29.3125 77.125 C30.19550781 77.66382813 31.07851563 78.20265625 31.98828125 78.7578125 C32.65214844 79.16773438 33.31601562 79.57765625 34 80 C32.68925635 84.46182436 30.92933989 87.99618757 28.375 91.875 C27.42753906 93.32519531 27.42753906 93.32519531 26.4609375 94.8046875 C25.97882813 95.52914062 25.49671875 96.25359375 25 97 C20.75404824 96.4093392 17.78710126 94.92995702 14.1171875 92.74609375 C13.27253181 92.24756645 13.27253181 92.24756645 12.41081238 91.7389679 C10.56143769 90.6452388 8.71829283 89.54144277 6.875 88.4375 C5.57648407 87.66697957 4.27756836 86.8971325 2.97827148 86.12792969 C0.29906968 84.54023167 -2.37763432 82.94844529 -5.05224609 81.35302734 C-8.74497987 79.1505597 -12.44356873 76.95813674 -16.14453125 74.76953125 C-20.61388128 72.12558733 -25.08145006 69.47869287 -29.546875 66.828125 C-35.92253937 63.04438226 -42.3040711 59.2706256 -48.6875 55.5 C-49.63294678 54.94151367 -50.57839355 54.38302734 -51.55249023 53.80761719 C-53.70157467 52.53826661 -55.85073545 51.26904557 -58 50 C-57.48150066 45.27044521 -56.20688457 42.16926713 -53.625 38.1875 C-53.01914063 37.23230469 -52.41328125 36.27710938 -51.7890625 35.29296875 C-50 33 -50 33 -47 32 C-44.20361328 33.32006836 -44.20361328 33.32006836 -40.8203125 35.33984375 C-40.2117038 35.69961807 -39.60309509 36.0593924 -38.9760437 36.43006897 C-37.01986972 37.58972515 -35.0725481 38.76342737 -33.125 39.9375 C-31.85210531 40.69427314 -30.57867264 41.45014215 -29.3046875 42.20507812 C-24.26412469 45.20046603 -19.24104483 48.22217698 -14.26074219 51.31689453 C-13.66776337 51.68496719 -13.07478455 52.05303986 -12.46383667 52.43226624 C-10.84207771 53.44172962 -9.22342401 54.45617687 -7.60498047 55.47094727 C-5.02306641 57.1075979 -5.02306641 57.1075979 -2 58 C-2.24234375 56.97116699 -2.4846875 55.94233398 -2.734375 54.88232422 C-3.63560306 51.04842162 -4.52807146 47.21252355 -5.41796875 43.37597656 C-5.80361848 41.71884745 -6.19161079 40.06226162 -6.58203125 38.40625 C-7.14426242 36.01963606 -7.69791446 33.63116607 -8.25 31.2421875 C-8.42499023 30.50757294 -8.59998047 29.77295837 -8.78027344 29.01608276 C-10.15293921 23.01455395 -11.13351959 18.14324484 -7.8828125 12.6953125 C-7.44066406 11.94765625 -6.99851562 11.2 -6.54296875 10.4296875 C-6.07503906 9.66914063 -5.60710937 8.90859375 -5.125 8.125 C-4.66480469 7.34125 -4.20460938 6.5575 -3.73046875 5.75 C-1.1890793 1.52171726 -1.1890793 1.52171726 0 0 Z " fill="#010101" transform="translate(279,339)"/>
<path d="M0 0 C2.77132017 0.30859025 5.54199986 0.6217033 8.3125 0.9375 C9.09818359 1.02451172 9.88386719 1.11152344 10.69335938 1.20117188 C11.45068359 1.28818359 12.20800781 1.37519531 12.98828125 1.46484375 C13.68477783 1.543396 14.38127441 1.62194824 15.09887695 1.70288086 C17 2 17 2 20 3 C19.37538176 13.11133213 17.86295643 23.02242738 16.27734375 33.015625 C16.00935624 34.7247746 15.74174909 36.43398389 15.47450256 38.14324951 C14.77631047 42.60218316 14.07301656 47.06029694 13.36859131 51.51824951 C12.64819282 56.08328915 11.93271314 60.64909943 11.21679688 65.21484375 C9.81596191 74.14398238 8.40972622 83.07226111 7 92 C2.15343273 92.06794521 -2.39957485 91.93792357 -7.20068359 91.18969727 C-8.35482758 91.01273819 -9.50897156 90.83577911 -10.6980896 90.65345764 C-11.91920441 90.45973068 -13.14031921 90.26600372 -14.3984375 90.06640625 C-16.30539902 89.77031715 -16.30539902 89.77031715 -18.25088501 89.46824646 C-20.92583875 89.05251165 -23.60011081 88.63271251 -26.27392578 88.2097168 C-29.70276932 87.66743729 -33.13285983 87.13358774 -36.56345177 86.60249424 C-39.84235686 86.09412989 -43.12037386 85.58016963 -46.3984375 85.06640625 C-47.63169769 84.87470352 -48.86495789 84.68300079 -50.1355896 84.48548889 C-51.27082062 84.30537766 -52.40605164 84.12526642 -53.57568359 83.93969727 C-54.5774765 83.78203384 -55.57926941 83.62437042 -56.61141968 83.46192932 C-59 83 -59 83 -61 82 C-60.34 77.05 -59.68 72.1 -59 67 C-53.59654936 66.89492561 -48.60088385 67.22830248 -43.24609375 68.09375 C-42.18927147 68.26022034 -42.18927147 68.26022034 -41.11109924 68.43005371 C-38.88559688 68.78090766 -36.66146522 69.13954006 -34.4375 69.5 C-32.20992802 69.86018255 -29.98213943 70.21838804 -27.75318909 70.56994629 C-25.73364912 70.8884962 -23.71529467 71.2145358 -21.69702148 71.54101562 C-18.08770077 71.98911197 -14.63260552 72.08212592 -11 72 C-10.65984165 69.66748563 -10.32777104 67.33426131 -10 65 C-9.72786458 63.09505208 -9.45572917 61.19010417 -9.18359375 59.28515625 C-8.90899177 55.86723795 -9 52.42893158 -9 49 C-22.2 47.02 -35.4 45.04 -49 43 C-48 31 -48 31 -47 27 C-36.19894939 27.39929947 -25.64249457 29.01630579 -14.98120117 30.71582031 C-13.83627197 30.89467773 -12.69134277 31.07353516 -11.51171875 31.2578125 C-9.95650513 31.50748779 -9.95650513 31.50748779 -8.36987305 31.76220703 C-7.19678589 31.87991455 -7.19678589 31.87991455 -6 32 C-4.07302565 30.07302565 -4.21532797 26.69707716 -3.80859375 24.12109375 C-3.69902847 23.4344313 -3.5894632 22.74776886 -3.47657776 22.04029846 C-3.12639029 19.83995311 -2.78188869 17.63875966 -2.4375 15.4375 C-2.20154491 13.94850855 -1.96522158 12.4595754 -1.72851562 10.97070312 C-1.14806419 7.3144698 -0.57270991 3.65745488 0 0 Z " fill="#000000" transform="translate(511,792)"/>
<path d="M0 0 C7.21359463 6.33029732 13.41303037 12.44862432 14.66357422 22.31494141 C14.80467499 24.8150864 14.83435297 27.28520083 14.8046875 29.7890625 C14.79856445 30.66836426 14.79244141 31.54766602 14.78613281 32.45361328 C14.5597132 41.88486081 12.15885542 49.4298437 6.3671875 56.9765625 C5.3153125 58.4615625 5.3153125 58.4615625 4.2421875 59.9765625 C-0.88541657 65.93524613 -8.22809138 69.6196034 -15.93359375 70.79296875 C-26.98148394 71.54441714 -37.10548145 69.88670119 -45.8828125 62.8515625 C-53.99342766 55.16782182 -57.50749948 46.14441313 -57.9453125 35.1640625 C-57.65477742 22.70979219 -53.24789785 12.05850603 -44.8359375 3.0234375 C-33.27867642 -7.71415967 -12.80673813 -9.84256728 0 0 Z M-37.203125 20.84375 C-40.42917796 25.5814392 -42.35069485 30.14037868 -41.2578125 35.98046875 C-39.13801968 42.96253636 -34.47320748 46.36879176 -28.3203125 49.8515625 C-22.87603117 51.51252969 -17.76025871 52.23183251 -12.35546875 50.0625 C-6.9129495 46.920636 -3.64111017 43.00145552 -1.6328125 36.9765625 C-0.81328526 31.04084378 -1.55123172 26.70619671 -5 21.76953125 C-8.85961192 17.53134496 -14.10003293 14.41580685 -19.83203125 13.703125 C-27.29081397 13.39868489 -32.3156123 15.03222992 -37.203125 20.84375 Z " fill="#010101" transform="translate(838.6328125,590.0234375)"/>
<path d="M0 0 C5.99932374 1.8331267 11.44920563 4.07321751 17 7 C17 9.31 17 11.62 17 14 C18.57587891 13.93039062 18.57587891 13.93039062 20.18359375 13.859375 C30.76266213 13.52783365 37.79773461 14.40992597 46.25 21.25 C47.52907243 22.4702351 48.78085038 23.7198929 50 25 C50.79664063 25.82564453 50.79664063 25.82564453 51.609375 26.66796875 C56.11508025 32.40135211 56.00555246 39.77979916 55.38110352 46.78613281 C53.72200093 56.42402021 48.57475072 65.64740357 44.4543457 74.44677734 C43.42536074 76.65100397 42.41280765 78.86234205 41.40039062 81.07421875 C40.74577654 82.47962582 40.09021314 83.8845912 39.43359375 85.2890625 C39.13351913 85.94935455 38.83344452 86.60964661 38.52427673 87.28994751 C37.76053007 88.89918428 36.88795021 90.45581854 36 92 C33 93 33 93 31.19067383 92.37915039 C30.53607178 92.03875732 29.88146973 91.69836426 29.20703125 91.34765625 C28.49482422 90.98349609 27.78261719 90.61933594 27.04882812 90.24414062 C26.31083984 89.85419922 25.57285156 89.46425781 24.8125 89.0625 C24.06291016 88.67642578 23.31332031 88.29035156 22.54101562 87.89257812 C20.68939311 86.93728243 18.84407548 85.96978423 17 85 C19.40158776 76.96591143 22.92565693 69.63213594 26.625 62.125 C27.80729767 59.71219938 28.98595494 57.29766645 30.1640625 54.8828125 C30.68436035 53.82465332 31.2046582 52.76649414 31.74072266 51.67626953 C34.33422856 46.16444098 34.5506662 41.65320988 33.3125 35.6875 C32.24625251 32.84335502 32.24625251 32.84335502 29.6875 31.75 C28.800625 31.5025 27.91375 31.255 27 31 C26.195625 30.62875 25.39125 30.2575 24.5625 29.875 C20.77280055 28.58095629 17.8778065 28.17452375 14.11450195 29.82885742 C8.32775783 33.15886499 5.82694936 36.79643743 3 42.75 C2.58411621 43.57677246 2.16823242 44.40354492 1.73974609 45.25537109 C-0.35646573 49.45980054 -2.33642282 53.71242062 -4.2734375 57.9921875 C-4.62921875 58.77239258 -4.985 59.55259766 -5.3515625 60.35644531 C-6.0212394 61.84085318 -6.67557903 63.33230002 -7.3125 64.83105469 C-9.52215198 69.80036985 -9.52215198 69.80036985 -11.88232422 70.78637695 C-15.53666921 71.15501332 -18.56346089 69.16179326 -21.75 67.5625 C-22.44738281 67.22412109 -23.14476562 66.88574219 -23.86328125 66.53710938 C-25.58068121 65.70193542 -27.29105738 64.85234576 -29 64 C-28.35757847 59.40898242 -26.53439834 55.53948112 -24.53515625 51.41015625 C-24.18585556 50.67674011 -23.83655487 49.94332397 -23.47666931 49.18768311 C-22.3434721 46.81026741 -21.20294476 44.43644623 -20.0625 42.0625 C-18.50895153 38.80860754 -16.95938168 35.55282753 -15.41015625 32.296875 C-14.83752548 31.09518425 -14.83752548 31.09518425 -14.25332642 29.86921692 C-10.66161122 22.31925434 -7.1910368 14.71829769 -3.78149414 7.08422852 C-3.42047607 6.27912842 -3.05945801 5.47402832 -2.6875 4.64453125 C-2.38199219 3.95721924 -2.07648438 3.26990723 -1.76171875 2.56176758 C-1 1 -1 1 0 0 Z " fill="#020202" transform="translate(399,754)"/>
<path d="M0 0 C7.43234436 7.10513423 12.20258921 15.17099518 13.05078125 25.55859375 C13.09085028 38.39403858 10.67067959 45.72763149 1.72265625 54.96875 C-2.20134909 58.65161535 -2.20134909 58.65161535 -4.25 59.875 C-6.79357016 59.60452334 -7.9530033 59.1797247 -9.7512207 57.3347168 C-10.22132568 56.67125244 -10.69143066 56.00778809 -11.17578125 55.32421875 C-11.7181543 54.57180908 -12.26052734 53.81939941 -12.81933594 53.04418945 C-13.39458008 52.22523193 -13.96982422 51.40627441 -14.5625 50.5625 C-15.8025744 48.84056148 -17.04348997 47.11922849 -18.28515625 45.3984375 C-18.92984863 44.49834961 -19.57454102 43.59826172 -20.23876953 42.67089844 C-23.61529814 37.97704002 -27.05087305 33.32815116 -30.5 28.6875 C-31.14364502 27.80860107 -31.78729004 26.92970215 -32.45043945 26.02416992 C-33.04945068 25.21826416 -33.64846191 24.4123584 -34.265625 23.58203125 C-34.79446289 22.8650708 -35.32330078 22.14811035 -35.86816406 21.40942383 C-36.32416992 20.90306396 -36.78017578 20.3967041 -37.25 19.875 C-37.91 19.875 -38.57 19.875 -39.25 19.875 C-41.99561992 25.14659025 -42.87088579 28.99928902 -41.25 34.875 C-38.8036539 42.13064015 -33.93430555 47.38728971 -27.17578125 50.9765625 C-25.56164068 51.67722392 -23.90869616 52.28754511 -22.25 52.875 C-23.21355353 63.43308656 -23.21355353 63.43308656 -24.25 67.875 C-34.41336065 67.54714966 -41.04821216 63.51253819 -48 56.1875 C-55.96270089 46.78728496 -60.92644336 36.53467427 -60.49609375 24.00390625 C-59.1582254 12.43028318 -54.21292649 4.78842902 -45.390625 -2.5859375 C-31.49231048 -12.5785213 -12.80266964 -10.81538958 0 0 Z M-28.25 9.875 C-27.63729613 13.59028642 -26.01274709 15.80594814 -23.72265625 18.75390625 C-23.01302734 19.67494141 -22.30339844 20.59597656 -21.57226562 21.54492188 C-20.82654297 22.49947266 -20.08082031 23.45402344 -19.3125 24.4375 C-17.84441791 26.33414471 -16.37694281 28.23125945 -14.91015625 30.12890625 C-14.25668213 30.96752197 -13.60320801 31.8061377 -12.92993164 32.67016602 C-11.64219521 34.3602616 -10.42861564 36.10707654 -9.25 37.875 C-5.9448926 36.84927701 -5.20993445 35.80592146 -3.4375 32.75 C-1.91378068 28.65288805 -1.89617616 25.02060747 -3.25 20.875 C-6.17605833 14.56471051 -9.57785934 10.86591089 -16.14453125 8.45703125 C-20.86657767 7.1516789 -23.84207237 7.85994737 -28.25 9.875 Z " fill="#010101" transform="translate(795.25,335.125)"/>
<path d="M0 0 C7.36441721 6.09784191 13.37986461 13.08777624 14.421875 22.87988281 C15.03040904 31.69982302 15.27959479 40.23323588 10.203125 47.82421875 C9.77902344 48.50484375 9.35492187 49.18546875 8.91796875 49.88671875 C3.33559159 58.09701162 -5.01456607 64.64171158 -14.796875 66.82421875 C-26.22630366 67.82900369 -35.38200247 67.03561048 -44.796875 59.82421875 C-52.017639 53.43891505 -52.017639 53.43891505 -52.796875 48.82421875 C-46.58709073 43.07085963 -40.30107017 37.51690505 -33.7109375 32.19921875 C-29.79770347 29.00988056 -25.95743566 25.73741201 -22.12353516 22.45336914 C-19.74384253 20.42484515 -17.40293582 18.56159263 -14.796875 16.82421875 C-14.301875 15.33921875 -14.301875 15.33921875 -13.796875 13.82421875 C-20.79770384 11.85440379 -25.8500164 11.30892849 -32.51171875 14.5078125 C-40.45495957 19.08366234 -43.50448491 24.29738358 -46.796875 32.82421875 C-51.94859123 32.91459974 -56.71600704 32.67103008 -61.796875 31.82421875 C-61.29242097 19.51554032 -56.8836999 12.93919368 -48.0234375 4.60546875 C-34.79287563 -7.20781569 -14.90124732 -10.75911738 0 0 Z M-9.95703125 27.421875 C-10.582146 27.97335205 -11.20726074 28.5248291 -11.85131836 29.09301758 C-12.51397705 29.68493896 -13.17663574 30.27686035 -13.859375 30.88671875 C-19.36131589 35.73594287 -24.91268836 40.4389848 -30.796875 44.82421875 C-30.56256658 46.77514298 -30.56256658 46.77514298 -29.796875 48.82421875 C-24.40874706 51.71071586 -20.77561353 52.30197317 -14.8984375 50.60546875 C-8.7741078 48.32876626 -5.57816087 44.96962084 -2.640625 39.2734375 C-1.28205575 35.32981288 -1.59667407 31.78249732 -2.796875 27.82421875 C-3.456875 26.83421875 -4.116875 25.84421875 -4.796875 24.82421875 C-7.43798664 24.82421875 -8.00563092 25.68134592 -9.95703125 27.421875 Z " fill="#010101" transform="translate(747.796875,730.17578125)"/>
<path d="M0 0 C8.43721588 6.90317663 14.22111013 14.16554842 15.75 25.25 C15.75 27.56 15.75 29.87 15.75 32.25 C-9.495 35.715 -9.495 35.715 -35.25 39.25 C-33.01139923 44.84650191 -31.14647749 46.59487 -26.0625 49.5 C-17.88894058 51.67961584 -10.62095081 50.23138949 -3.25 46.25 C-0.69937334 44.21169749 -0.69937334 44.21169749 0.75 42.25 C6.15489519 43.77012677 9.73492628 47.52385218 13.75 51.25 C10.72917469 57.66925377 4.99335062 61.57439369 -1.5 64.0625 C-12.74285606 67.62273775 -27.95303201 68.6568138 -38.89453125 63.69921875 C-47.85222295 58.1879358 -53.55306732 51.41084825 -56.8515625 41.4296875 C-58.62378724 31.73457568 -58.14033397 20.9179796 -53.25 12.25 C-46.44218266 2.62567416 -38.94107358 -1.93627549 -27.484375 -4.24609375 C-17.76753411 -5.7599494 -8.75439709 -4.71390613 0 0 Z M-34.859375 16.12109375 C-37.47290707 20.00468495 -38.51435791 22.49981874 -38.25 27.25 C-30.12468721 26.84426822 -22.01768277 26.34281854 -13.9375 25.375 C-12.72449219 25.23320312 -11.51148438 25.09140625 -10.26171875 24.9453125 C-7.20732777 24.24014831 -6.10934071 23.70674621 -4.25 21.25 C-6.65986045 16.02863569 -8.69356375 13.20275839 -14.04296875 10.91015625 C-21.64291376 8.63689836 -29.54039578 9.9371349 -34.859375 16.12109375 Z " fill="#010101" transform="translate(523.25,218.75)"/>
<path d="M0 0 C8.45142114 7.96319163 12.09943972 15.36163808 13.09375 27.05859375 C13.36434319 36.63082791 11.91325495 45.12405631 5.8125 52.75 C5.35359375 53.32492187 4.8946875 53.89984375 4.421875 54.4921875 C-1.01653733 60.64340145 -8.20899395 64.27873365 -16.40625 65.0546875 C-19.02226099 65.0614298 -21.5826146 64.98074772 -24.1875 64.75 C-26.10743663 51.92318929 -27.78480708 39.09055723 -29.18481445 26.19580078 C-29.36016724 24.61001221 -29.36016724 24.61001221 -29.5390625 22.9921875 C-29.64041504 22.0522998 -29.74176758 21.11241211 -29.84619141 20.14404297 C-30.13443364 17.61058845 -30.13443364 17.61058845 -31.1875 14.75 C-34.168668 15.35978436 -36.47188596 15.8649571 -38.44140625 18.30078125 C-41.75672879 24.01390165 -43.01110009 29.16119928 -42.1875 35.75 C-40.4284835 41.6559207 -37.83263366 46.8030329 -34.1875 51.75 C-37.1575 55.38 -40.1275 59.01 -43.1875 62.75 C-50.10494165 59.29127918 -53.99743441 54.26554614 -56.625 47 C-59.58782439 35.99522369 -60.34809886 21.75593515 -55.65234375 11.14453125 C-50.86391811 3.31705147 -44.54658203 -3.36439706 -35.8125 -6.4375 C-22.70213584 -9.3760299 -10.68049135 -8.85995305 0 0 Z M-17.1875 10.75 C-19.42224067 12.52681184 -19.42224067 12.52681184 -19.24682617 14.85375977 C-19.15892822 15.70768311 -19.07103027 16.56160645 -18.98046875 17.44140625 C-18.88830078 18.38693359 -18.79613281 19.33246094 -18.70117188 20.30664062 C-18.59353516 21.29857422 -18.48589844 22.29050781 -18.375 23.3125 C-18.27896484 24.27736328 -18.18292969 25.24222656 -18.08398438 26.23632812 C-17.89110768 28.15344481 -17.68922486 30.06967832 -17.47802734 31.98486328 C-17.28859867 33.7877785 -17.12613049 35.59379191 -16.99462891 37.40185547 C-16.82555825 39.52822776 -16.51801886 41.64267912 -16.1875 43.75 C-15.1975 44.41 -14.2075 45.07 -13.1875 45.75 C-7.29101177 42.91514989 -4.87683122 40.74927734 -2.1875 34.75 C-0.3865998 29.2272394 -1.83338077 24.86127833 -4.1875 19.75 C-7.33336547 14.26551002 -11.35955166 12.52801814 -17.1875 10.75 Z " fill="#010101" transform="translate(851.1875,476.25)"/>
<path d="M0 0 C1.05550552 0.0028299 2.11101105 0.00565979 3.19850159 0.00857544 C6.55042129 0.01971835 9.90206809 0.04481226 13.25390625 0.0703125 C15.53450133 0.0803499 17.81510063 0.08947442 20.09570312 0.09765625 C25.66937506 0.11963843 31.24284447 0.15412777 36.81640625 0.1953125 C36.81640625 6.1353125 36.81640625 12.0753125 36.81640625 18.1953125 C35.16640625 18.5253125 33.51640625 18.8553125 31.81640625 19.1953125 C32.84261487 21.405608 33.87357419 23.26848747 35.37890625 25.1953125 C39.83304147 31.3923702 38.41864289 41.95333275 37.81640625 49.1953125 C36.51567328 55.15831126 33.56011729 59.33975723 28.73046875 63.0390625 C22.77088221 66.63913927 16.48730899 66.73179682 9.81640625 65.1953125 C4.56457188 62.92747493 1.10492767 58.77235535 -1.43359375 53.6953125 C-2.84948081 48.97568898 -3.31528754 44.26744882 -3.5 39.359375 C-3.54189453 38.29589844 -3.58378906 37.23242188 -3.62695312 36.13671875 C-3.66626953 35.04230469 -3.70558594 33.94789063 -3.74609375 32.8203125 C-3.78927734 31.70269531 -3.83246094 30.58507812 -3.87695312 29.43359375 C-3.98256786 26.68761051 -4.08467345 23.94154369 -4.18359375 21.1953125 C-6.10783005 19.95625756 -6.10783005 19.95625756 -8.0234375 20.69140625 C-11.91791878 22.43920883 -14.50611028 23.83092007 -16.18359375 27.8828125 C-18.43694345 35.86526698 -17.25455206 42.02135019 -14.15625 49.6171875 C-13.20428909 52.14045739 -12.63699373 54.54172944 -12.18359375 57.1953125 C-13.95005945 58.2030077 -15.72193198 59.20122964 -17.49609375 60.1953125 C-18.48222656 60.7521875 -19.46835938 61.3090625 -20.484375 61.8828125 C-23.18359375 63.1953125 -23.18359375 63.1953125 -26.18359375 63.1953125 C-33.60680935 50.14069197 -35.94759533 33.06774682 -31.93359375 18.4453125 C-29.21832917 11.13787233 -24.97340578 6.0355469 -18.18359375 2.1953125 C-12.07905731 -0.02074559 -6.45149427 -0.06568869 0 0 Z M7.81640625 21.1953125 C7.58954312 24.15337201 7.49220611 26.98751687 7.50390625 29.9453125 C7.48779297 30.74453125 7.47167969 31.54375 7.45507812 32.3671875 C7.45094748 37.39005559 8.0467203 40.84101405 10.81640625 45.1953125 C13.19332354 47.01761576 14.32907853 47.21967889 17.31640625 47.0703125 C20.55614975 45.93640228 21.78751788 44.99377922 23.81640625 42.1953125 C25.66449285 37.59321449 26.31583579 33.63182782 24.69140625 28.8828125 C22.87644699 24.86111863 20.59111237 22.34028419 16.87890625 19.9453125 C13.14335808 18.58693135 10.68837333 18.32334542 7.81640625 21.1953125 Z " fill="#010101" transform="translate(247.18359375,506.8046875)"/>
<path d="M0 0 C0.69784331 2.434964 1.38353822 4.87227105 2.0625 7.3125 C2.26166016 8.00279297 2.46082031 8.69308594 2.66601562 9.40429688 C4.11328125 14.66015625 4.11328125 14.66015625 3 18 C1.29296875 19.10546875 1.29296875 19.10546875 -0.8125 20.1875 C-5.40314713 22.94848167 -7.51303415 25.86488814 -9 31 C-9.89761855 35.88988389 -9.45710497 39.83476923 -7.125 44.25 C-3.29898597 49.63875215 2.17904081 52.2968974 8.58984375 53.4765625 C13.85640724 53.78492831 17.92774134 52.83601587 22.234375 49.74609375 C26.05162364 45.97107132 28.66938746 41.24118361 29.21875 35.85546875 C28.81500856 30.73804604 26.51496814 26.39826987 24 22 C31.29840547 13.55353075 31.29840547 13.55353075 35 10 C38.88677994 11.52694926 40.77247475 13.47907299 43 17 C47.34268437 28.29097935 47.17423587 39.67627503 43 51 C38.25421886 60.50411725 31.57099054 68.30088111 21.53515625 72.27734375 C11.40759346 75.16424532 0.10758705 74.75789653 -9.3125 69.77734375 C-11.39539509 68.3168763 -13.17641756 66.77335666 -15 65 C-16.06734375 63.97326172 -16.06734375 63.97326172 -17.15625 62.92578125 C-25.18057124 54.59618692 -26.50226278 47.11429118 -26.42016602 35.87744141 C-26.05915529 24.73801148 -23.15286045 14.91400712 -15 7 C-10.45688586 3.3701132 -6.01805273 0 0 0 Z " fill="#010101" transform="translate(251,423)"/>
<path d="M0 0 C1.01085436 2.39175361 2.00879203 4.78761585 3 7.1875 C3.28617188 7.86103516 3.57234375 8.53457031 3.8671875 9.22851562 C6.72315813 16.19844395 6.72315813 16.19844395 6 20 C4.48046875 21.7890625 4.48046875 21.7890625 2.1875 23.625 C-4.35543538 29.16205308 -10.29807328 35.24413204 -16.30981445 41.34814453 C-17.100896 42.14720215 -17.89197754 42.94625977 -18.70703125 43.76953125 C-19.4131958 44.48729736 -20.11936035 45.20506348 -20.84692383 45.94458008 C-23 48 -23 48 -25.76831055 50.1394043 C-26.87299683 51.06039917 -26.87299683 51.06039917 -28 52 C-28 52.66 -28 53.32 -28 54 C-11.5 54.66 5 55.32 22 56 C28 70 28 70 28 73 C12.76099789 73.04341046 -2.47429759 72.97436556 -17.71166992 72.73754883 C-20.06282983 72.70369424 -22.41408299 72.67586608 -24.76538086 72.65356445 C-28.21242846 72.62024024 -31.65873064 72.56808114 -35.10546875 72.51171875 C-36.15840622 72.50532883 -37.21134369 72.4989389 -38.29618835 72.49235535 C-39.26603165 72.47256119 -40.23587494 72.45276703 -41.23510742 72.43237305 C-42.08586349 72.42126999 -42.93661957 72.41016693 -43.81315613 72.39872742 C-46.5015035 71.90856083 -47.34076963 71.13448603 -49 69 C-50.38671875 66.0390625 -50.38671875 66.0390625 -51.6875 62.625 C-52.34298828 60.94277344 -52.34298828 60.94277344 -53.01171875 59.2265625 C-53.96474302 56.11510775 -54.34806526 54.20355209 -54 51 C-52.56640625 48.98291016 -52.56640625 48.98291016 -50.5625 47.0390625 C-49.83160156 46.31976563 -49.10070312 45.60046875 -48.34765625 44.859375 C-47.57292969 44.12203125 -46.79820312 43.3846875 -46 42.625 C-45.25621094 41.89539063 -44.51242187 41.16578125 -43.74609375 40.4140625 C-40.35298026 37.10946501 -36.91424945 33.8985745 -33.3046875 30.83203125 C-26.22172554 24.71125649 -19.80323411 17.82405679 -13.24707031 11.15112305 C-11.442454 9.31649281 -9.63181915 7.4879795 -7.8203125 5.66015625 C-7.26513947 5.09152359 -6.70996643 4.52289093 -6.13796997 3.93702698 C-2.22662466 0 -2.22662466 0 0 0 Z " fill="#000000" transform="translate(828,381)"/>
<path d="M0 0 C5.78749061 4.65293849 7.22805812 13.45039038 7.99609375 20.45703125 C8.27775389 26.6290622 7.05788946 32.45013614 3.25 37.41015625 C-2.30568938 42.89552045 -8.8206825 44.63195775 -16.2265625 46.42578125 C-17.08765625 46.64008789 -17.94875 46.85439453 -18.8359375 47.07519531 C-36.35929894 51.42578125 -36.35929894 51.42578125 -39.2265625 51.42578125 C-38.7315625 56.87078125 -38.7315625 56.87078125 -38.2265625 62.42578125 C-42.8465625 63.41578125 -47.4665625 64.40578125 -52.2265625 65.42578125 C-53.7115625 60.97078125 -53.7115625 60.97078125 -55.2265625 56.42578125 C-56.3609375 56.57015625 -57.4953125 56.71453125 -58.6640625 56.86328125 C-63.18025627 57.43806955 -67.6996003 57.92278545 -72.2265625 58.42578125 C-73.5465625 52.15578125 -74.8665625 45.88578125 -76.2265625 39.42578125 C-71.2765625 38.10578125 -66.3265625 36.78578125 -61.2265625 35.42578125 C-61.77244049 29.73305364 -62.36624618 24.07928851 -63.2265625 18.42578125 C-61.2901921 17.92142431 -59.35242104 17.42244251 -57.4140625 16.92578125 C-56.33511719 16.64734375 -55.25617188 16.36890625 -54.14453125 16.08203125 C-51.2265625 15.42578125 -51.2265625 15.42578125 -48.2265625 15.42578125 C-46.9065625 20.37578125 -45.5865625 25.32578125 -44.2265625 30.42578125 C-37.24171831 29.85520601 -30.64836773 28.8047706 -23.8515625 27.11328125 C-22.97628906 26.91283203 -22.10101563 26.71238281 -21.19921875 26.50585938 C-14.82747357 24.94656524 -14.82747357 24.94656524 -10.2265625 20.42578125 C-9.57879628 15.33618956 -10.36102858 12.60468488 -13.2265625 8.42578125 C-13.2265625 7.76578125 -13.2265625 7.10578125 -13.2265625 6.42578125 C-10.9609375 4.62890625 -10.9609375 4.62890625 -7.9765625 2.67578125 C-7.00203125 2.0209375 -6.0275 1.36609375 -5.0234375 0.69140625 C-2.2265625 -0.57421875 -2.2265625 -0.57421875 0 0 Z " fill="#000000" transform="translate(283.2265625,571.57421875)"/>
<path d="M0 0 C4.35647645 1.44950405 7.31757289 3.67747112 10.8125 6.625 C11.78832031 7.44226563 12.76414062 8.25953125 13.76953125 9.1015625 C14.50558594 9.72804688 15.24164063 10.35453125 16 11 C14.53289516 15.42590288 12.09949067 18.68577265 9.1875 22.25 C8.19159076 23.4925947 7.19684969 24.73612634 6.203125 25.98046875 C5.68041016 26.63321777 5.15769531 27.2859668 4.61914062 27.95849609 C1.84454121 31.45686767 -0.85750047 35.01021385 -3.5625 38.5625 C-4.66789023 40.01177864 -5.77335793 41.4609982 -6.87890625 42.91015625 C-7.40887207 43.60512207 -7.93883789 44.30008789 -8.48486328 45.01611328 C-10.64907736 47.84988763 -12.82408893 50.67519486 -15 53.5 C-16.6669294 55.66646525 -18.33362381 57.83310938 -20 60 C-20.51594727 60.67063477 -21.03189453 61.34126953 -21.56347656 62.03222656 C-28.15695331 70.60800519 -34.70818051 79.19905613 -41 88 C-45.35647645 86.55049595 -48.31757289 84.32252888 -51.8125 81.375 C-52.78832031 80.55773437 -53.76414062 79.74046875 -54.76953125 78.8984375 C-55.50558594 78.27195312 -56.24164063 77.64546875 -57 77 C-56.43874005 72.89394034 -54.07372966 70.19506968 -51.5625 67.0625 C-50.64307282 65.89204989 -49.72380622 64.72147361 -48.8046875 63.55078125 C-48.33514648 62.9573291 -47.86560547 62.36387695 -47.38183594 61.75244141 C-45.29300667 59.10339255 -43.2410973 56.42640959 -41.1875 53.75 C-40.35809588 52.67185733 -39.52866808 51.59373289 -38.69921875 50.515625 C-35.06295367 45.78318288 -31.44092822 41.03984805 -27.81713867 36.29785156 C-23.76657824 30.99872061 -19.70213102 25.71052329 -15.6328125 20.42578125 C-10.4052524 13.62995311 -5.20520847 6.81295219 0 0 Z " fill="#010101" transform="translate(376,735)"/>
<path d="M0 0 C3.76363368 1.76199891 6.32604243 3.96201534 9.3125 6.875 C10.21613281 7.73867188 11.11976563 8.60234375 12.05078125 9.4921875 C14 12 14 12 13.78594303 13.9700737 C12.41561152 17.5093531 9.49029817 19.89708138 6.82788086 22.51269531 C6.18399918 23.15701508 5.54011749 23.80133484 4.87672424 24.46517944 C2.74646442 26.59334907 0.60577495 28.7106955 -1.53515625 30.828125 C-3.01411594 32.30148958 -4.49241471 33.77551786 -5.97007751 35.25018311 C-9.86138559 39.13003579 -13.76161868 43.00079531 -17.66375732 46.86975098 C-21.64388148 50.81918946 -25.61552865 54.77713209 -29.58789062 58.734375 C-37.38363818 66.49794612 -45.18883765 74.25194052 -53 82 C-54.12120157 81.0449028 -55.24156401 80.08882049 -56.36157227 79.13232422 C-57.29756004 78.33385574 -57.29756004 78.33385574 -58.25245667 77.51925659 C-60.23224136 75.79809702 -62.10154154 73.998427 -63.9375 72.125 C-64.52402344 71.52945313 -65.11054688 70.93390625 -65.71484375 70.3203125 C-66.35099609 69.66675781 -66.35099609 69.66675781 -67 69 C-65.3255737 64.63230114 -62.06484147 61.79877723 -58.80615234 58.57910156 C-58.1718782 57.94453537 -57.53760406 57.30996918 -56.8841095 56.65617371 C-54.78942522 54.56288118 -52.68774898 52.4767592 -50.5859375 50.390625 C-49.1310443 48.93946247 -47.67659244 47.48785733 -46.2225647 46.03582764 C-42.39649074 42.21738582 -38.56444838 38.40498851 -34.73114014 34.59381104 C-30.81974796 30.70288621 -26.91401915 26.80628572 -23.0078125 22.91015625 C-15.34407973 15.26786601 -7.67403095 7.63194826 0 0 Z " fill="#000000" transform="translate(352,712)"/>
<path d="M0 0 C17.73766767 0.59317317 35.3684673 2.17060984 53.03430176 3.79174805 C56.09722107 4.07173199 59.1605298 4.34731275 62.22385883 4.62277222 C65.91632955 4.95505046 69.60856002 5.28996299 73.30078125 5.625 C73.9895315 5.68725769 74.67828175 5.74951538 75.38790321 5.81365967 C82.27440616 6.43776876 89.14627982 7.0790025 96 8 C95.85870713 10.41700987 95.71213513 12.83350429 95.5625 15.25 C95.52318359 15.93191406 95.48386719 16.61382813 95.44335938 17.31640625 C95.2321883 20.66265563 94.87661968 23.76804986 94 27 C83.89775389 27.26699208 73.98582424 26.43011966 63.94140625 25.50390625 C62.221791 25.34897101 60.50214 25.19443207 58.78245544 25.04026794 C55.2027237 24.7182309 51.62334045 24.39263635 48.04418945 24.06420898 C43.46286104 23.64394115 38.88091972 23.23086374 34.29872227 22.82019138 C30.75805349 22.50238876 27.21764654 22.18174743 23.67732048 21.86015129 C21.98732387 21.70679972 20.29726713 21.55410932 18.60714912 21.40210152 C16.25029043 21.18951183 13.89378916 20.97332601 11.53735352 20.75610352 C10.84482483 20.69424362 10.15229614 20.63238373 9.43878174 20.56864929 C5.90355535 20.23871798 2.46625144 19.77347873 -1 19 C-1.0272616 16.95840905 -1.04651345 14.91671037 -1.0625 12.875 C-1.07410156 11.73804688 -1.08570313 10.60109375 -1.09765625 9.4296875 C-1.00520301 6.18272987 -0.5659374 3.19196525 0 0 Z " fill="#000000" transform="translate(795,551)"/>
<path d="M0 0 C0.3717334 0.74870361 0.7434668 1.49740723 1.12646484 2.26879883 C10.15495675 20.46513663 10.15495675 20.46513663 19.5 38.5 C19.89928711 39.25458496 20.29857422 40.00916992 20.70996094 40.78662109 C21.45978272 42.2030566 22.20977213 43.61940338 22.95996094 45.03564453 C23.30317383 45.68388184 23.64638672 46.33211914 24 47 C24.33032227 47.62374512 24.66064453 48.24749023 25.00097656 48.89013672 C25.88444261 50.56799132 26.75520205 52.25251933 27.625 53.9375 C28.09164062 54.83339844 28.55828125 55.72929688 29.0390625 56.65234375 C30 59 30 59 30 63 C27.75692972 64.20250158 25.5071209 65.3869162 23.25 66.5625 C22.61578125 66.90474609 21.9815625 67.24699219 21.328125 67.59960938 C16.59579047 70.03971936 16.59579047 70.03971936 13.65625 69.84375 C11.39249741 68.69051755 10.359615 67.10740325 9 65 C8.525625 66.155 8.05125 67.31 7.5625 68.5 C4.91739432 73.81865336 0.81897717 77.59786999 -4 81 C-6.28125 81.72265625 -6.28125 81.72265625 -8 82 C-9.17713663 79.9219935 -10.34171974 77.83848217 -11.5 75.75 C-11.83386719 75.16347656 -12.16773438 74.57695313 -12.51171875 73.97265625 C-14.36076806 70.61417893 -15 68.93354216 -15 65 C-12.91796875 63.5078125 -12.91796875 63.5078125 -10.1875 62.125 C-6.94274866 60.28462477 -5.148772 59.19690412 -2.875 56.1875 C-0.36932636 47.05968887 -2.97307409 40.75871984 -7.1875 32.5625 C-7.67025391 31.58990234 -8.15300781 30.61730469 -8.65039062 29.61523438 C-10.55851318 25.78106061 -12.48196944 21.96105444 -14.51416016 18.19091797 C-15.2129126 16.87244873 -15.2129126 16.87244873 -15.92578125 15.52734375 C-16.34899658 14.7499585 -16.77221191 13.97257324 -17.20825195 13.17163086 C-18.14756667 10.5952496 -18.1130018 9.49191864 -17 7 C-14.69910308 5.55237687 -12.56995105 4.38707304 -10.125 3.25 C-9.48691406 2.93417969 -8.84882812 2.61835937 -8.19140625 2.29296875 C-5.28632797 0.8919811 -3.26257196 0 0 0 Z " fill="#020202" transform="translate(672,758)"/>
<path d="M0 0 C3.31130167 2.69043261 5.73722198 4.87900599 6.2734375 9.20703125 C6.54792014 16.24856667 6.54792014 16.24856667 3.8125 20 C-1.20449846 23.56764335 -4.74219354 24.56461199 -10.83984375 23.6484375 C-13.65614077 22.80303912 -15.49966702 21.43211813 -17.1875 19.01171875 C-18.90153908 14.76782392 -18.73369387 10.45651091 -18 6 C-16.24166367 2.80894518 -14.85125522 1.53507471 -11.8125 -0.375 C-7.70783455 -1.28714788 -4.05093072 -1.15950553 0 0 Z " fill="#010101" transform="translate(597,788)"/>
</svg>
