<?xml version="1.0" standalone="no"?>
<!DOCTYPE svg PUBLIC "-//W3C//DTD SVG 20010904//EN"
 "http://www.w3.org/TR/2001/REC-SVG-20010904/DTD/svg10.dtd">
<svg version="1.0" xmlns="http://www.w3.org/2000/svg"
 width="300.000000pt" height="300.000000pt" viewBox="0 0 300.000000 300.000000"
 preserveAspectRatio="xMidYMid meet">
<metadata>
Created by potrace 1.10, written by Peter Selinger 2001-2011
</metadata>
<g transform="translate(0.000000,300.000000) scale(0.100000,-0.100000)"
fill="#000000" stroke="none">
<path d="M1550 2453 c0 -16 -7 -64 -15 -108 -21 -120 -21 -129 13 -122 16 3
35 0 46 -9 74 -54 174 44 133 131 -20 42 -80 65 -117 45 -25 -13 -24 -19 -5
63 7 25 5 27 -24 27 -27 0 -31 -3 -31 -27z m120 -113 c26 -26 25 -43 -4 -77
-24 -27 -26 -27 -53 -13 -34 19 -43 63 -17 91 22 24 49 24 74 -1z"/>
<path d="M1172 2427 c-14 -6 -20 -16 -17 -26 10 -34 35 -164 32 -167 -2 -2
-12 4 -23 14 -120 110 -113 106 -138 94 l-24 -11 19 -88 c10 -48 18 -91 17
-95 -2 -4 -33 22 -71 58 -61 59 -69 64 -90 53 -12 -6 -24 -13 -25 -15 -2 -1
16 -20 40 -41 23 -21 68 -61 98 -90 50 -46 57 -50 74 -38 10 8 22 16 27 17 4
2 -1 41 -12 87 -11 46 -17 86 -14 89 3 3 34 -22 68 -55 62 -61 62 -62 90 -47
24 13 28 20 22 42 -3 14 -16 71 -27 126 -11 56 -21 102 -22 102 0 1 -11 -3
-24 -9z"/>
<path d="M1375 2403 c-89 -23 -110 -139 -32 -179 57 -30 174 1 133 35 -11 9
-20 10 -35 2 -37 -20 -91 -8 -91 20 0 4 34 10 75 14 41 4 75 9 75 11 0 3 -7
20 -15 40 -10 23 -26 39 -49 49 -20 8 -37 14 -38 14 -2 -1 -12 -4 -23 -6z m46
-43 c29 -16 24 -40 -8 -40 -16 0 -38 -3 -50 -6 -29 -8 -30 9 -3 36 23 23 33
24 61 10z"/>
<path d="M1881 2260 c-39 -55 -71 -102 -71 -104 0 -10 130 -87 156 -92 43 -8
100 18 124 58 40 66 20 126 -63 186 -28 21 -57 41 -64 45 -7 5 -38 -30 -82
-93z m142 -4 c25 -23 37 -42 37 -61 0 -33 -49 -85 -81 -85 -17 0 -70 25 -98
46 -7 6 84 133 95 134 5 0 27 -15 47 -34z"/>
<path d="M2088 2075 c-38 -21 -53 -73 -35 -117 14 -32 59 -78 78 -78 20 0 12
37 -13 58 -19 16 -28 33 -28 53 0 16 4 29 8 29 5 0 28 -27 53 -61 l44 -61 22
27 c16 18 23 39 23 66 0 79 -80 123 -152 84z m96 -41 c17 -17 22 -59 7 -68 -8
-5 -61 62 -61 77 0 13 39 7 54 -9z"/>
<path d="M759 2026 c-9 -18 -9 -36 0 -70 6 -25 11 -50 11 -55 0 -6 -29 7 -64
29 l-64 39 -15 -22 c-14 -21 -11 -24 100 -90 64 -37 116 -67 118 -65 1 2 7 12
13 24 10 18 8 23 -13 32 -15 7 -25 20 -25 31 0 17 9 21 48 27 39 5 51 11 65
36 17 30 17 30 -5 25 -13 -3 -46 -9 -74 -13 l-51 -6 -7 46 c-9 55 -22 66 -37
32z"/>
<path d="M2222 1867 c-70 -70 -73 -75 -61 -100 12 -27 13 -27 115 -27 l104 0
-12 25 c-10 23 -16 25 -85 25 l-74 0 55 53 c51 48 55 54 43 74 -12 22 -14 21
-85 -50z"/>
<path d="M651 1794 c-30 -38 -29 -113 2 -142 69 -64 167 -17 167 80 0 42 -13
63 -34 55 -13 -5 -16 -14 -10 -42 11 -61 -35 -94 -84 -59 -28 19 -30 69 -3 84
13 6 17 17 14 30 -7 28 -28 25 -52 -6z"/>
<path d="M2265 1691 c-58 -24 -79 -107 -42 -165 17 -26 20 -26 31 -10 11 14
10 22 -3 45 -12 22 -13 32 -3 54 16 35 35 27 39 -16 8 -82 13 -99 34 -99 11 0
34 14 51 30 27 28 30 36 25 73 -10 71 -72 112 -132 88z m77 -58 c22 -20 23
-56 3 -73 -20 -17 -22 -14 -30 43 -8 50 -2 57 27 30z"/>
<path d="M628 1580 c-27 -17 -41 -72 -28 -119 11 -42 16 -46 38 -33 9 7 10 15
3 35 -13 33 1 77 24 77 11 0 15 -11 15 -43 0 -23 7 -53 16 -65 33 -47 94 -13
94 53 0 17 -5 36 -12 43 -9 9 -9 12 0 12 7 0 12 11 12 25 0 24 -2 25 -72 25
-40 0 -81 -5 -90 -10z m122 -54 c18 -23 9 -61 -15 -61 -16 0 -21 8 -23 38 -3
40 14 51 38 23z"/>
<path d="M2208 1446 c-3 -14 -2 -27 1 -27 11 -3 45 -6 132 -13 46 -4 94 -10
107 -13 19 -4 22 -1 22 24 l0 30 -92 7 c-51 4 -109 9 -129 12 -33 6 -37 4 -41
-20z"/>
<path d="M767 1403 c-4 -3 -7 -17 -7 -29 0 -26 -18 -38 -67 -47 -23 -5 -33 -3
-33 6 0 22 -16 38 -32 32 -9 -4 -13 -15 -11 -29 4 -17 -1 -25 -17 -29 -16 -4
-21 -12 -18 -29 2 -19 8 -22 31 -20 19 2 27 -2 27 -13 0 -17 9 -19 29 -6 7 5
11 14 7 19 -4 7 10 15 36 22 68 17 87 28 93 53 10 40 -17 91 -38 70z"/>
<path d="M2232 1365 c-35 -15 -62 -63 -62 -110 0 -40 50 -85 95 -85 47 0 71
13 90 50 23 45 19 86 -12 119 -35 36 -68 44 -111 26z m80 -62 c22 -20 23 -41
1 -65 -24 -27 -69 -23 -89 7 -15 23 -15 27 0 50 19 29 60 33 88 8z"/>
<path d="M741 1244 c-25 -18 -24 -13 -8 -149 1 -14 -5 -21 -20 -23 -26 -4 -53
31 -53 70 0 23 -4 28 -25 28 -29 0 -32 -15 -10 -68 24 -55 53 -82 91 -82 54 0
66 21 62 109 -2 60 0 76 11 76 21 0 52 -48 53 -83 1 -27 5 -32 26 -32 23 0 24
3 19 34 -9 55 -37 106 -68 121 -36 19 -49 19 -78 -1z"/>
<path d="M2070 1210 c-10 -18 -8 -24 7 -36 10 -7 26 -16 36 -19 23 -8 22 -22
-3 -30 -23 -7 -50 -54 -50 -86 0 -11 15 -36 34 -55 26 -26 43 -34 69 -34 42 0
82 30 92 67 3 15 15 33 26 41 10 7 19 17 19 22 0 7 -184 135 -212 148 -4 2
-12 -6 -18 -18z m128 -116 c24 -17 30 -62 10 -82 -30 -30 -98 -1 -98 41 0 25
28 57 49 57 9 0 27 -7 39 -16z"/>
<path d="M882 927 l-93 -93 21 -19 c21 -19 21 -18 115 75 89 88 93 95 78 112
-9 10 -19 18 -22 18 -4 0 -48 -42 -99 -93z"/>
<path d="M1975 975 c-58 -30 -89 -95 -45 -95 11 0 20 6 20 14 0 20 39 46 67
46 35 0 28 -13 -32 -61 l-54 -43 21 -23 c46 -49 148 -13 163 57 8 37 -17 85
-55 105 -36 19 -47 19 -85 0z m84 -131 c-13 -15 -69 -20 -69 -5 0 5 17 23 38
39 l37 30 3 -24 c2 -14 -2 -32 -9 -40z"/>
<path d="M1019 922 c-14 -20 -50 -67 -79 -105 -44 -56 -50 -70 -40 -82 7 -8
18 -15 24 -14 10 0 155 187 159 205 1 3 -7 12 -18 19 -18 12 -23 10 -46 -23z"/>
<path d="M1070 818 c-36 -76 -38 -84 -23 -95 25 -19 28 -17 53 37 29 62 43 74
74 66 37 -9 40 -38 10 -97 -25 -50 -25 -53 -8 -66 10 -7 21 -13 25 -13 9 0 59
117 59 140 0 10 -3 26 -6 35 -9 22 -61 47 -84 40 -14 -4 -20 -2 -20 8 0 13
-20 27 -36 27 -3 0 -23 -37 -44 -82z"/>
<path d="M1838 883 c-23 -6 -23 -6 8 -69 21 -42 23 -56 14 -73 -6 -12 -15 -21
-20 -21 -13 0 -12 -21 0 -40 9 -13 14 -10 35 15 14 17 25 24 25 18 0 -10 6
-10 24 -2 l25 12 -42 83 c-23 46 -44 83 -47 83 -3 -1 -13 -3 -22 -6z"/>
<path d="M1614 795 c-9 -23 3 -45 24 -45 28 0 43 20 31 42 -12 22 -47 24 -55
3z"/>
<path d="M1414 755 c-7 -49 -9 -50 -81 -36 -38 7 -42 6 -46 -15 -4 -21 1 -23
55 -29 61 -7 65 -12 52 -61 -5 -19 -10 -20 -52 -13 -77 13 -92 11 -92 -10 0
-16 13 -21 81 -31 45 -6 86 -13 93 -16 8 -3 18 35 31 120 20 125 20 125 0 130
-32 9 -33 8 -41 -39z"/>
</g>
</svg>
